<?xml version="1.0" encoding="UTF-8"?><svg id="Capa_2" xmlns="http://www.w3.org/2000/svg" viewBox="0 0 128.39 177.45"><defs><style>.cls-1{fill:#a9e3fb;}</style></defs><g id="Capa_1-2"><path class="cls-1" d="M64.06,177.45c-.68-1.83-1.32-3.52-2.05-5.5,1.39-.57,2.59-1.09,3.8-1.55,13.82-5.27,26.64-12.22,37.49-22.41,9.39-8.81,16.65-18.96,18.55-32.1,2.47-17.13-7.78-34.1-23.85-39.71-1.04-.36-2.12-.64-3.52-1.05-.15,2.81-.19,5.33-.43,7.83-1.21,12.18-6.71,22.34-15.37,30.69-8.42,8.11-17.82,14.84-29.62,17.28-10.26,2.13-19.23-1.63-23.33-9.89-3.27-6.59-2.43-13.2.64-19.57,4.63-9.62,12.23-16.62,20.88-22.5,11.33-7.7,23.9-11.55,37.65-11.37.49,0,.98-.11,1.47-.17-2.01-15.14-21.22-34-35.44-34.7-.08,1.39-.12,2.79-.25,4.19-.97,10.55-6.35,18.79-14.24,25.3-4.29,3.54-9.27,6.32-14.18,9.02-2.06,1.13-4.71,1.48-7.12,1.63-10.81.66-17.78-8.78-14.17-19.13,3.34-9.58,10.8-15.49,18.95-20.65,6.95-4.4,14.64-6.75,23.25-7.45-3.47-10.47-10.03-17.18-20.81-19.82.52-1.95,1-3.77,1.54-5.83,8.35,1.73,14.89,5.88,19.5,12.66,2.33,3.43,3.79,7.45,5.76,11.13.5.94,1.37,2.15,2.26,2.34,21.37,4.48,33.78,18.52,40.72,38.24,1.02,2.89,2.2,4.36,5.28,5.23,24.61,6.91,37.38,33.84,27.73,58-5.48,13.72-15.18,23.98-26.83,32.53-9.97,7.31-20.97,12.79-32.65,16.88-.46.16-.94.25-1.62.43ZM87.88,74.05c-1.58-.09-2.89-.24-4.21-.23-17.58.2-32.13,7.24-44.18,19.77-4.74,4.93-8.83,10.32-9.47,17.48-.7,7.88,4.45,14,12.36,14.04,3.7.02,7.62-.66,11.07-1.99,11.05-4.29,20.1-11.42,26.97-21.1,5.83-8.21,8.41-17.43,7.45-27.97ZM44.47,32.05c-1.17.03-2.26-.02-3.33.11-11.15,1.26-20.51,6.27-28.13,14.29-2.66,2.8-4.95,6.37-6.2,10-2.17,6.26,1.84,10.85,8.44,10.2,2.29-.22,4.66-.91,6.72-1.93,6.9-3.4,12.69-8.25,17.22-14.47,3.85-5.28,5.81-11.21,5.28-18.2Z"/></g></svg>