<?xml version="1.0" encoding="UTF-8"?>
<svg id="Capa_1" xmlns="http://www.w3.org/2000/svg" version="1.1" viewBox="0 0 3840 710">
  <!-- Generator: Adobe Illustrator 30.1.0, SVG Export Plug-In . SVG Version: 2.1.1 Build 136)  -->
  <defs>
    <style>
      .st0 {
        fill: #fff;
      }
    </style>
  </defs>
  <polygon class="st0" points="198.2 710 0 710 0 5 198.5 5.2 198.6 93.1 117.7 93.2 117.7 622 198.6 622 198.2 710"/>
  <polygon class="st0" points="3840 5.2 3840 710 3645 710 3644.8 622 3725.7 621.9 3725.7 93.2 3644.9 93.1 3644.9 5.2 3840 5.2"/>
  <polygon class="st0" points="3012 0 3011.7 97.4 2884.4 97.4 2885 0 3012 0"/>
  <path class="st0" d="M3456.1,228.7c-33.4-3.1-49.7,27.2-49.8,57.5v280.5s-127.1,0-127.1,0v-292.5c-.6-21.7-9.2-43.5-33-45.6-17.4-1.5-32.9,7-41.1,22.5-5.6,10.6-7.6,21.6-8.3,34.1v281.5s-127.1,0-127.1,0V142.3s122.2-.1,122.2-.1l.9,51.3c28.5-57.2,86.3-70.8,143.5-57.9,30.6,6.9,53.5,28.6,62.9,58.5.3.3,1.3,1,1.5,1.1,19-30.3,40.9-55.7,77.7-61.7,23.7-3.9,47.6-3,70.5,3.4,27.3,7.6,47.7,26.5,57.6,52.8,6.2,16.6,8.5,33.2,9.4,51.5v325.6s-127.2,0-127.2,0v-292.5c-.6-21.4-9-43.3-32.6-45.5Z"/>
  <polygon class="st0" points="2846.8 142.3 2755.1 566.7 2611.5 566.7 2564.4 252 2513.9 566.7 2368.2 566.8 2279.3 142.3 2406.3 142.2 2448.1 456.6 2496.8 142.2 2633.2 142.2 2678.8 456.4 2724.6 142 2846.8 142.3"/>
  <path class="st0" d="M683.2,573.9c-75-17.4-91.7-105-95.7-170.6-2.4-39.4-1.9-78,1.1-117.3,1.6-21.2,4.6-41.2,9.8-61.6,10.8-42.5,33.2-79,78.4-89.7,20-4.5,40-4.7,60-.8,31.5,6.2,53.7,25.9,68.4,55.8l.4-183.5h127.1c0,0,0,560.4,0,560.4h-122.4c-.6-18.4.8-35-1-52.8-11.5,33.3-35.7,55.5-69.1,61.6-19,3.5-38.1,2.8-57.1-1.6ZM762.5,485c12.6.3,22.5-5.8,29.1-15.6,10.7-16.4,14.2-46.5,15.2-66.4,1.8-33.9,1.7-67-.1-100.8s-2.3-24.6-4.9-36.9c-4.8-22.8-16.5-42.7-42.7-41.5-27.5,1.2-38,23-41.9,47.3s-3.2,25.1-3.6,38.1c-.8,28.2-.8,55.6,0,83.8.5,15.9,2,31,5.1,46.5,4.6,22.7,16.5,46.2,43.9,45.6Z"/>
  <path class="st0" d="M1325.8,142.1v424.6s-122.2,0-122.2,0l-.8-51.3c-15.9,31.2-41.6,52.3-75.3,59.3s-51,3.8-75.3-3.9c-25.7-8.1-44.4-26.7-53.8-51.5-6.3-16.6-8.5-33.3-9.4-51.5V142.2s127.2,0,127.2,0v292.7c.6,22.3,9.9,44.2,34.6,45.4,32.1,1.6,47.2-27.3,47.8-56.4V142.2s127.1,0,127.1,0Z"/>
  <path class="st0" d="M216.9,492c-7.7-41.3-5.6-87.1,17.7-123.2,9.9-15.3,23.1-26.5,39.7-33.7s28.6-11.1,43.9-14.9l60.9-15c9.6-2.4,18.6-5.3,27.4-9.4,8.4-3.9,14.3-11.1,15.9-20.2,2-11.3,2.3-22.8,0-33.9-5.6-26.2-31.9-30.7-54.2-25.5s-29.9,33-30.4,56.1h-112.6c.2-48.2,12.3-95.6,58.1-120.2,16.8-9.1,34.4-14.6,53.7-17.3,33.2-4.6,66.5-4.9,99.8-.7,43.8,5.5,83.3,24.4,97.5,68.9,4.9,15.3,7.6,30.6,7.6,47.2l.2,243.7c0,21,1.8,54.6,14.2,72.9h-121.7c-5.6-16-5.6-31.9-7.7-49.7-20.7,41.5-61.3,62-105.8,60.6-14.7-.5-28.5-2.4-42.4-7.2-35.9-12.4-55-42.2-61.7-78.5ZM378.2,489.7c18.8-2,33.9-12.3,40.6-29.9,3.2-8.4,4.5-17.2,4.7-26.5l.6-76c-18.2,9.4-36.4,16.9-55.6,24.1-14.6,5.5-25.6,16.1-30.2,30.9-4.3,18.2-4,37.5,2.5,54.7s20.3,24.4,37.5,22.6Z"/>
  <path class="st0" d="M2136.5,575.5c-44,5.3-102.9,2.2-142.7-19.4s-39.2-32.4-46.8-57.3c-3.9-12.7-6.4-25.4-6.4-38.8l-.2-28.3h112.8c2.2,26.7,1.5,56.5,31.6,65.4,10.4,2.7,21.1,2.8,31.5.2,17.3-4.3,28.3-18.4,30.2-35.8,3.5-33.1-21.9-48.3-49.4-57.7-23.8-8.1-47-16-70-25.9-37.8-16.2-70.3-38-79.6-80.7-5.1-23.3-5.5-47.1-.7-70.5,10.9-53.3,54.2-81.9,105.2-91,34.9-6.3,70.3-6.4,105.2-.2,48.4,8.5,88.5,35,98.9,85.3s3.3,28.8,2.8,43.7h-113c.6-22.3-1.3-48.1-26.2-53.3-11.5-2.4-23.4-2-34.5.8s-21.9,14.6-23.8,28.4c-4.7,34.4,25.8,45.9,53.9,54.9l51.8,16.5c16.7,5.3,31.9,12.8,46.4,22.5,24.2,16.2,40.7,39.7,47,68.3,5.5,25.2,5.3,50.8-.8,75.9-14.4,59.6-65.1,90.1-123.2,97Z"/>
  <path class="st0" d="M1789,566.7c-35.3,4.4-69.9,6-105,3.7-13.1-.8-25.2-3-37.3-7-41.7-14.9-42.5-62.7-43.7-100.6v-232.8s-52.6,0-52.6,0v-87.8s52.6,0,52.6,0V17.4s127.2,0,127.2,0v124.7s58.8,0,58.8,0v87.8s-58.8,0-58.8,0v215.8c.3,6.2.9,11.4,2,17,2.9,9.9,10.1,16.5,20.3,18.8,12,2.5,24.1,2,36.5.3v84.7Z"/>
  <polygon class="st0" points="1512.7 566.6 1385.5 566.8 1385.5 6.3 1512.7 6.2 1512.7 566.6"/>
  <polygon class="st0" points="3011.8 566.6 2884.5 566.8 2884.5 142.2 3011.8 142.2 3011.8 566.6"/>
</svg>