<?xml version="1.0" encoding="UTF-8"?>
<svg id="Capa_1" xmlns="http://www.w3.org/2000/svg" version="1.1" xmlns:xlink="http://www.w3.org/1999/xlink" viewBox="0 0 600 154">
  <!-- Generator: Adobe Illustrator 30.1.0, SVG Export Plug-In . SVG Version: 2.1.1 Build 136)  -->
  <defs>
    <style>
      .st0 {
        fill: #fff;
      }

      .st1 {
        fill: none;
      }

      .st2 {
        fill: #ff3390;
      }

      .st3 {
        clip-path: url(#clippath);
      }
    </style>
    <clipPath id="clippath">
      <rect class="st1" x="-1" y="0" width="600" height="154"/>
    </clipPath>
  </defs>
  <g class="st3">
    <g>
      <path class="st2" d="M98.1,50.6c8.8,12.7,9.6,29.3,2,42.8-7,12.4-20.5,20.7-35.2,20.5v-37.8c-1.5,21.3-19.1,37.9-40.5,37.8V33.2c21.3,0,39,16.6,40.4,37.9v-37.9c13.2,0,25.7,6.4,33.3,17.4Z"/>
      <path class="st0" d="M190.4,83.6c-2,12.9-8.9,23.4-21.3,27.9-4.6,1.7-9.4,2.5-14.4,2.5h-24.1V33.2h24.6c4.9,0,9.5.9,14,2.5,12.3,4.5,19.2,14.8,21.2,27.4,1.1,6.8,1.1,13.6,0,20.4h0ZM177.3,64.7c-.9-10.1-4.2-20.5-14.9-23.7-2.5-.7-4.9-1.1-7.6-1.1h-10.8v67.3h10.8c2.8,0,5.3-.4,7.9-1.2,7.4-2.4,11.3-8.3,13.2-15.6,2-7.6,2.1-17.9,1.4-25.7h0Z"/>
      <path class="st0" d="M342.8,134.2h-26.9v-3.3c4-.1,6.8-3.2,6.8-7.2v-60.2c0-3.8-3-6.6-6.7-6.7v-3.4h20.2v6.4c4.1-5.3,10.1-8.1,16.7-8.1,12.3,0,20.1,9.2,22.5,20.6,2.3,10.7,1.7,25.5-5.1,34.6-4,5.6-10.2,8.7-17.1,8.8-6.7,0-12.9-2.8-17-8.2v16.6c0,3.8,2.9,6.7,6.7,6.8v3.4h-.1ZM359,104.3c2.6-3.8,3.5-9.2,3.8-13.7s.3-9.6,0-14.5-1.3-9.3-3.7-12.9-7.4-5.3-12.1-4.4c-7.9,1.5-9.9,10.5-10.5,17.3-.4,5.1-.4,10.1,0,15.3.6,6.9,2.6,16.1,10.7,17.4,4.7.8,9.1-.4,11.9-4.5h0Z"/>
      <path class="st0" d="M393.1,107.1c-5.2-7-6.6-16.1-6.4-24.6.2-7.9,1.9-16.5,6.9-22.7,4.1-5.2,10.1-8,16.7-8s12.6,2.8,16.8,8.2v-16.6c0-3.7-3-6.6-6.7-6.7v-3.3h20.2v70.4c0,3.9,2.8,6.9,6.7,7v3.3h-20.2v-6.5c-4.2,5.3-10.2,8.1-16.8,8.2s-13-3-17.2-8.6h0ZM423,104.3c2.6-3.8,3.5-9.2,3.8-13.7s.3-9.6,0-14.5c-.4-4.3-1.3-9.3-3.7-12.8s-7.5-5.4-12.2-4.5c-7.9,1.5-9.9,10.5-10.5,17.3s-.4,10.1,0,15.2c.6,6.9,2.6,16.1,10.7,17.4,4.7.8,9.1-.4,11.9-4.5h0Z"/>
      <path class="st0" d="M556.6,115.7c-6.6,0-12.6-3-16.6-8.2v6.5h-20.2v-3.3c3.7,0,6.7-3,6.7-6.8v-60.6c0-3.8-3-6.6-6.7-6.7v-3.3h20.2v26.7c4.2-5.3,10.1-8.1,16.7-8.1,7,0,13.4,3.2,17.5,8.9,6.6,9.1,7.3,23.7,5.1,34.3-2.4,11.4-10.1,20.9-22.7,20.8v-.2ZM562.9,104.3c2.6-3.8,3.5-9.2,3.8-13.7s.3-9.5,0-14.3-1.3-9.4-3.7-13-7.5-5.4-12.2-4.5c-7.9,1.5-9.9,10.5-10.5,17.3-.4,5.1-.4,10.1,0,15.3s2.6,16.1,10.7,17.4,9.1-.4,11.9-4.5Z"/>
      <path class="st0" d="M509.7,53.4v49.9c0,4,2.6,7.2,6.7,7.3v3.3h-20.2v-6.5c-4.3,5.4-10.3,8.2-17,8.1-10.9,0-18.4-7.5-21.4-17.5s-2-8.7-2-13.4v-21.4c0-3.7-3-6.6-6.7-6.7v-3.3h20.2v32.1c0,3.8.3,7.3,1,11,1,5,3.2,10.3,8.5,11.9s5.5.8,8.1,0c5.1-1.6,7.3-6.8,8.3-11.6s1-7.3,1-11.2v-21.7c0-3.9-2.8-6.9-6.7-7v-3.4h20.2Z"/>
      <path class="st0" d="M241.1,98.9h8.2c-.9,2.5-2.1,4.7-3.7,6.8-3.5,4.8-8.5,8-14.3,9.3-11.2,2.4-22.5-1.3-28.5-11.4s-3.2-6.5-3.9-10.2c-1.3-6.3-1.3-12.8,0-19.1,2-10.4,8.4-19,18.9-21.7s9.3-1.2,13.9,0,11.9,5.6,15.3,11.3c4.1,6.8,5.2,15.3,4.7,23.3h-40.3c.1,4.9.6,10.2,2.9,14.4,1.6,2.8,4.1,4.7,7.2,5.4,7.5,1.6,15.2-1.5,19.5-8h.1ZM238.3,80.3c-.1-3.5-.5-6.6-1.2-9.8-.6-2.4-1.3-4.7-2.6-6.7-2-3.6-5.6-5.4-9.6-5.4-11.5,0-13,13.2-13.4,21.9h26.8Z"/>
      <path class="st0" d="M301.8,98.9h8.2c-.9,2.5-2.1,4.7-3.7,6.8-3.5,4.8-8.5,8-14.3,9.3-11.2,2.4-22.5-1.3-28.5-11.4s-3.2-6.5-3.9-10.2c-1.3-6.3-1.3-12.8,0-19.1,2-10.4,8.4-19,18.9-21.7s9.3-1.2,13.9,0,11.9,5.6,15.3,11.3c4.1,6.8,5.2,15.3,4.7,23.3h-40.3c.1,4.9.6,10.2,2.9,14.4,1.6,2.8,4.1,4.7,7.2,5.4,7.5,1.6,15.2-1.5,19.5-8h0ZM298.9,80.3c-.1-3.5-.5-6.6-1.2-9.8-.6-2.4-1.3-4.7-2.6-6.7-2-3.6-5.6-5.4-9.6-5.4-11.5,0-13,13.2-13.4,21.9h26.8Z"/>
    </g>
  </g>
</svg>